<svg height="512" viewBox="0 0 64 64" width="512" xmlns="http://www.w3.org/2000/svg"><path d="m58.782 31.142a2.119 2.119 0 0 1 .587-1.879l.252-.253a2.12 2.12 0 0 0 0-3 2.122 2.122 0 0 0 -3 0l-.327.327a2.121 2.121 0 0 1 -1.831.6l-8.918-1.408a41.186 41.186 0 0 0 -12.847 0l-8.919 1.408a2.122 2.122 0 0 1 -1.831-.6l-.327-.327a2.122 2.122 0 0 0 -3 0 2.122 2.122 0 0 0 0 3l.253.253a2.122 2.122 0 0 1 .587 1.879 41.181 41.181 0 0 0 0 14.736 2.124 2.124 0 0 1 -.587 1.88l-.253.252a2.122 2.122 0 0 0 0 3 2.12 2.12 0 0 0 3 0l.327-.327a2.121 2.121 0 0 1 1.831-.595l8.921 1.412a41.186 41.186 0 0 0 12.847 0l8.918-1.408a2.12 2.12 0 0 1 1.831.595l.327.327a2.12 2.12 0 0 0 3 0 2.12 2.12 0 0 0 0-3l-.252-.252a2.121 2.121 0 0 1 -.587-1.88 41.181 41.181 0 0 0 -.002-14.74z" fill="#e6e6e6"/><path d="m44.539 17.653a2.124 2.124 0 0 1 .587-1.88l.253-.252a2.122 2.122 0 0 0 0-3 2.12 2.12 0 0 0 -3 0l-.327.327a2.124 2.124 0 0 1 -1.831.595l-8.921-1.408a41.186 41.186 0 0 0 -12.847 0l-8.916 1.408a2.123 2.123 0 0 1 -1.831-.595l-.327-.327a2.12 2.12 0 0 0 -3 0 2.12 2.12 0 0 0 0 3l.252.252a2.121 2.121 0 0 1 .587 1.88 41.181 41.181 0 0 0 0 14.736 2.12 2.12 0 0 1 -.587 1.879l-.252.253a2.12 2.12 0 0 0 0 3 2.122 2.122 0 0 0 3 0l.327-.328a2.123 2.123 0 0 1 1.831-.593l8.918 1.408a41.186 41.186 0 0 0 12.847 0l8.919-1.408a2.124 2.124 0 0 1 1.831.595l.327.328a2.122 2.122 0 0 0 3 0 2.122 2.122 0 0 0 0-3l-.253-.253a2.123 2.123 0 0 1 -.587-1.879 41.181 41.181 0 0 0 0-14.738z" fill="#f2f2f2"/><path d="m29.072 31.371a16.3 16.3 0 0 0 -13.886-10.142l-3.257-.229.142-2 3.257.232a18.306 18.306 0 0 1 15.6 11.394z" fill="#ccc"/><path d="m32.192 47.508-.142-1.994 3.257-.234a16.288 16.288 0 0 0 13.885-10.14l1.858.742a18.3 18.3 0 0 1 -15.6 11.392z" fill="#ccc"/><path d="m29.072 31.371 1.856-.742a18.306 18.306 0 0 0 -15.6-11.394l-3.257-.235-.142 2 3.257.232a16.3 16.3 0 0 1 13.886 10.139z"/><path d="m60.329 29.718a3.122 3.122 0 0 0 0-4.414 3.2 3.2 0 0 0 -4.414 0l-.328.327a1.133 1.133 0 0 1 -.968.315l-8.419-1.331a42.13 42.13 0 0 0 -.674-7.141 1.121 1.121 0 0 1 .31-.994l.253-.252a3.122 3.122 0 0 0 -4.414-4.415l-.327.328a1.122 1.122 0 0 1 -.969.315l-8.918-1.408a41.994 41.994 0 0 0 -13.159 0l-8.921 1.407a1.112 1.112 0 0 1 -.968-.314l-.327-.328a3.122 3.122 0 0 0 -4.415 4.414l.253.253a1.121 1.121 0 0 1 .31.994 42.063 42.063 0 0 0 0 15.093 1.122 1.122 0 0 1 -.311.995l-.251.251a3.122 3.122 0 0 0 4.414 4.415l.326-.328a1.138 1.138 0 0 1 .969-.315l8.43 1.331a42.188 42.188 0 0 0 .666 7.141 1.122 1.122 0 0 1 -.31.994l-.253.253a3.121 3.121 0 0 0 4.414 4.414l.328-.327a1.123 1.123 0 0 1 .968-.316l8.918 1.408a42.045 42.045 0 0 0 13.159 0l8.918-1.407a1.1 1.1 0 0 1 .968.315l.327.327a3.121 3.121 0 1 0 4.415-4.413l-.253-.254a1.122 1.122 0 0 1 -.31-.994 42.063 42.063 0 0 0 0-15.093 1.12 1.12 0 0 1 .309-.993zm-51.119 5.854a3.135 3.135 0 0 0 -2.21.914l-.326.327a1.121 1.121 0 1 1 -1.585-1.586l.251-.252a3.122 3.122 0 0 0 .86-2.765 40.071 40.071 0 0 1 0-14.379 3.122 3.122 0 0 0 -.863-2.764l-.253-.254a1.121 1.121 0 0 1 1.585-1.585l.331.327a3.126 3.126 0 0 0 2.693.876l8.919-1.409a40.166 40.166 0 0 1 12.535 0l8.919 1.41a3.151 3.151 0 0 0 2.694-.877l.327-.327a1.121 1.121 0 0 1 1.586 1.585l-.253.253a3.122 3.122 0 0 0 -.864 2.765 40.071 40.071 0 0 1 0 14.379 3.122 3.122 0 0 0 .864 2.765l.253.253a1.121 1.121 0 0 1 -1.586 1.585l-.328-.327a3.126 3.126 0 0 0 -2.693-.876l-8.919 1.409a40.166 40.166 0 0 1 -12.535 0l-8.919-1.41a3.249 3.249 0 0 0 -.483-.037zm48.59-4.251a40.065 40.065 0 0 1 0 14.378 3.123 3.123 0 0 0 .863 2.765l.253.254a1.121 1.121 0 0 1 -1.587 1.582l-.329-.323a3.123 3.123 0 0 0 -2.694-.876l-8.919 1.408a40.2 40.2 0 0 1 -12.535 0l-8.917-1.409a3.146 3.146 0 0 0 -2.694.877l-.327.327a1.121 1.121 0 0 1 -1.586-1.586l.253-.253a3.123 3.123 0 0 0 .864-2.766 40.162 40.162 0 0 1 -.631-6.5 42.091 42.091 0 0 0 5.065.309 42.01 42.01 0 0 0 6.579-.519l8.918-1.407a1.115 1.115 0 0 1 .969.314l.327.328a3.122 3.122 0 0 0 4.414-4.415l-.253-.252a1.121 1.121 0 0 1 -.31-.994 42.121 42.121 0 0 0 .646-5.928l8.139 1.282a3.145 3.145 0 0 0 2.692-.872l.328-.327a1.147 1.147 0 0 1 1.585 0 1.12 1.12 0 0 1 0 1.585l-.253.253a3.12 3.12 0 0 0 -.86 2.765z"/><path d="m35.307 45.28-3.257.234.142 1.994 3.258-.234a18.3 18.3 0 0 0 15.6-11.392l-1.858-.742a16.288 16.288 0 0 1 -13.885 10.14z"/></svg>